# xmcd
#
# Track frame offsets: 
#        150
#        22949
#        40871
#        66619
#        90242
#        102969
#        126341
#        147393
#        170032
#        192470
#        212426
#
# Disc length: 3278 seconds
#
# Revision: 0
# Processed by: cddbd v1.5.2PL0 Copyright (c) Steve Scherf et al.
# Submitted via: ExactAudioCopy v0.99pb4
#
DISCID=9d0ccc0b
DTITLE=Johnnie Bassett - The Gentleman Is Back
DYEAR=2009
DGENRE=Blues
TTITLE0=A Woman's Got Ways
TTITLE1=Keep Your Hands off My Baby
TTITLE2=Nice Guys Finish Last
TTITLE3=Georgia
TTITLE4=Your Real Gitchieegumee
TTITLE5=Feeling Lucky
TTITLE6=Meat On Them Bones
TTITLE7=I'm Lost
TTITLE8=I Can't See What I Saw in You
TTITLE9=I Love The Way You Look
TTITLE10=My Old Flame
EXTD=
EXTT0=
EXTT1=
EXTT2=
EXTT3=
EXTT4=
EXTT5=
EXTT6=
EXTT7=
EXTT8=
EXTT9=
EXTT10=
PLAYORDER=
